<?xml version="1.0" standalone="no"?>
<!DOCTYPE svg PUBLIC "-//W3C//DTD SVG 20010904//EN"
 "http://www.w3.org/TR/2001/REC-SVG-20010904/DTD/svg10.dtd">
<svg version="1.0" xmlns="http://www.w3.org/2000/svg"
 width="512.000000pt" height="512.000000pt" viewBox="0 0 512.000000 512.000000"
 preserveAspectRatio="xMidYMid meet">
<metadata>
Created by potrace 1.14, written by Peter Selinger 2001-2017
</metadata>
<g transform="translate(0.000000,512.000000) scale(0.100000,-0.100000)"
fill="#000000" stroke="none">
<path d="M0 2560 l0 -2560 2560 0 2560 0 0 2560 0 2560 -2560 0 -2560 0 0
-2560z m2738 2159 c732 -79 1344 -513 1672 -1184 114 -232 186 -478 197 -672
l6 -93 -174 0 c-96 0 -179 4 -186 8 -6 4 -21 54 -33 110 -63 302 -191 579
-365 788 -321 384 -690 590 -1160 645 -138 16 -403 6 -527 -20 -371 -80 -721
-297 -983 -611 -185 -222 -315 -497 -380 -803 -13 -60 -29 -114 -37 -119 -15
-9 -343 -7 -353 3 -9 10 13 199 37 309 47 220 170 507 301 703 355 528 896
867 1497 936 109 12 375 13 488 0z m50 -1291 c56 -19 139 -57 185 -84 102 -61
256 -212 310 -304 33 -58 97 -233 97 -267 0 -17 -330 -19 -363 -2 -12 6 -67
57 -122 113 -137 140 -233 186 -385 186 -148 0 -248 -47 -375 -176 -126 -127
-127 -128 -317 -132 l-158 -4 0 45 c0 111 84 270 209 397 117 118 262 200 435
246 80 21 109 24 236 21 136 -3 151 -5 248 -39z m-1972 -1097 c45 -6 61 -15
123 -73 40 -36 98 -78 129 -94 50 -25 68 -29 147 -29 113 0 156 18 254 109 96
88 126 96 339 96 l164 0 -7 -47 c-34 -231 -250 -465 -509 -554 -116 -40 -225
-54 -326 -40 -301 40 -558 246 -649 518 -12 34 -21 76 -21 93 l0 30 153 -1
c83 0 175 -4 203 -8z m2644 -15 c19 -11 62 -43 94 -73 33 -29 85 -66 115 -81
48 -23 68 -27 146 -27 110 0 154 19 250 106 104 94 103 94 313 97 l182 4 0
-50 c0 -206 -244 -466 -531 -563 -84 -29 -106 -33 -209 -33 -138 0 -221 19
-336 74 -200 97 -363 287 -413 481 -10 41 -17 78 -14 82 3 5 87 7 187 5 153
-3 186 -6 216 -22z m859 -841 c180 -47 326 -196 369 -375 74 -307 -77 -607
-346 -690 -91 -28 -216 -27 -302 3 -222 79 -351 274 -354 532 -1 109 15 178
62 268 108 208 353 321 571 262z m-1570 -21 c54 -16 108 -63 146 -129 l26 -44
42 41 c59 57 144 111 213 134 45 14 88 19 179 19 66 0 132 -3 148 -8 l27 -7 0
-525 0 -525 -214 0 -215 0 -3 229 c-2 126 -7 233 -12 238 -4 4 -41 -27 -82
-70 l-73 -78 -57 76 c-57 75 -77 89 -88 59 -3 -9 -6 -112 -6 -230 l0 -214
-224 0 -224 0 -7 63 c-3 34 -5 261 -3 504 3 501 -2 471 85 484 69 11 287 0
342 -17z m-1193 -10 c11 -44 -5 -180 -31 -263 -24 -75 -84 -181 -118 -210 -24
-19 -22 -24 23 -83 81 -107 134 -236 145 -351 3 -34 8 -77 11 -95 l5 -32 -237
2 -237 3 -28 113 c-35 142 -64 193 -132 232 -29 16 -55 30 -59 30 -5 0 -8 -86
-8 -190 l0 -190 -217 2 -218 3 0 520 0 520 215 0 215 0 3 -158 3 -158 37 7
c86 16 112 50 166 223 15 46 29 88 32 92 3 5 99 9 214 9 l210 0 6 -26z m574
-509 l0 -525 -212 2 -213 3 -3 523 -2 522 215 0 215 0 0 -525z"/>
<path d="M4130 1068 c-52 -36 -72 -69 -72 -121 0 -152 194 -201 265 -66 36 68
7 155 -64 191 -46 24 -89 22 -129 -4z"/>
</g>
</svg>
