<?xml version="1.0" standalone="no"?>
<!DOCTYPE svg PUBLIC "-//W3C//DTD SVG 20010904//EN"
 "http://www.w3.org/TR/2001/REC-SVG-20010904/DTD/svg10.dtd">
<svg version="1.0" xmlns="http://www.w3.org/2000/svg"
 width="700.000000pt" height="700.000000pt" viewBox="0 0 700.000000 700.000000"
 preserveAspectRatio="xMidYMid meet">
<metadata>
Created by potrace 1.14, written by Peter Selinger 2001-2017
</metadata>
<g transform="translate(0.000000,700.000000) scale(0.100000,-0.100000)"
fill="#000000" stroke="none">
<path d="M10 3500 l0 -3490 3490 0 3490 0 0 3490 0 3490 -3490 0 -3490 0 0
-3490z m4204 2526 c632 -64 1001 -188 1221 -412 116 -117 183 -257 205 -426 8
-57 10 -517 8 -1493 l-3 -1410 -27 -99 c-55 -200 -157 -358 -287 -447 l-50
-34 -3 -302 -3 -301 -30 -44 c-21 -29 -51 -53 -94 -75 -59 -31 -68 -33 -170
-33 -72 0 -123 5 -154 16 -61 20 -132 89 -146 140 -6 22 -11 117 -11 212 l0
172 -1170 0 -1170 0 0 -172 c0 -95 -5 -190 -11 -212 -14 -52 -83 -119 -144
-139 -33 -12 -82 -17 -156 -17 -102 0 -111 2 -170 33 -43 22 -73 46 -94 75
l-30 44 -3 302 -3 303 -49 32 c-127 82 -233 247 -288 447 l-27 99 -3 1410 c-2
1010 0 1433 8 1490 25 177 96 320 217 437 247 238 674 366 1393 417 204 15
1058 6 1244 -13z"/>
<path d="M1800 4270 l0 -570 1700 0 1700 0 0 570 0 570 -1700 0 -1700 0 0
-570z"/>
<path d="M2378 2967 c-102 -39 -176 -106 -220 -203 -19 -40 -23 -66 -23 -144
0 -84 3 -102 28 -152 36 -74 107 -144 177 -177 47 -22 69 -26 150 -26 88 0
101 3 162 33 74 36 133 96 170 170 20 40 23 63 23 152 0 125 -17 171 -91 250
-70 74 -137 104 -248 107 -59 2 -104 -2 -128 -10z"/>
<path d="M4393 2966 c-96 -31 -187 -119 -223 -214 -30 -77 -25 -214 8 -284 36
-74 96 -134 170 -170 61 -30 74 -33 162 -33 81 0 103 4 150 26 70 33 141 103
177 177 25 50 28 68 28 152 0 82 -4 103 -26 150 -37 78 -88 131 -161 170 -56
30 -73 34 -153 37 -56 2 -106 -2 -132 -11z"/>
</g>
</svg>
